<svg width="31" height="32" viewBox="0 0 31 32" fill="none" xmlns="http://www.w3.org/2000/svg">
<path d="M28 0.25H3C2.33696 0.25 1.70107 0.513392 1.23223 0.982233C0.763392 1.45107 0.5 2.08696 0.5 2.75V11.5C0.5 19.7375 4.4875 24.7297 7.83281 27.4672C11.4359 30.4141 15.0203 31.4141 15.1766 31.4562C15.3914 31.5147 15.618 31.5147 15.8328 31.4562C15.9891 31.4141 19.5688 30.4141 23.1766 27.4672C26.5125 24.7297 30.5 19.7375 30.5 11.5V2.75C30.5 2.08696 30.2366 1.45107 29.7678 0.982233C29.2989 0.513392 28.663 0.25 28 0.25ZM28 11.5C28 17.2922 25.8656 21.9937 21.6562 25.4719C19.8239 26.9808 17.7399 28.155 15.5 28.9406C13.2894 28.1687 11.2312 27.0153 9.41875 25.5328C5.15938 22.0484 3 17.3281 3 11.5V2.75H28V11.5ZM8.36562 16.1344C8.13107 15.8998 7.9993 15.5817 7.9993 15.25C7.99931 14.9183 8.13107 14.6002 8.36562 14.3656C8.60017 14.1311 8.91829 13.9993 9.25 13.9993C9.58171 13.9993 9.89983 14.1311 10.1344 14.3656L13 17.2328L20.8656 9.36562C20.9818 9.24949 21.1196 9.15736 21.2714 9.09451C21.4231 9.03165 21.5858 8.9993 21.75 8.9993C21.9142 8.9993 22.0769 9.03165 22.2286 9.09451C22.3804 9.15736 22.5182 9.24949 22.6344 9.36562C22.7505 9.48176 22.8426 9.61964 22.9055 9.77138C22.9683 9.92312 23.0007 10.0858 23.0007 10.25C23.0007 10.4142 22.9683 10.5769 22.9055 10.7286C22.8426 10.8804 22.7505 11.0182 22.6344 11.1344L13.8844 19.8844C13.7683 20.0006 13.6304 20.0928 13.4787 20.1557C13.3269 20.2186 13.1643 20.251 13 20.251C12.8357 20.251 12.6731 20.2186 12.5213 20.1557C12.3696 20.0928 12.2317 20.0006 12.1156 19.8844L8.36562 16.1344Z" fill="white"/>
</svg>
