<svg width="99" height="31" viewBox="0 0 99 31" fill="none" xmlns="http://www.w3.org/2000/svg">
<rect y="0.632812" width="29.5085" height="29.5085" rx="14.7543" fill="#EE4236"/>
<path d="M15.3054 7.56734C17.2344 7.57724 19.1634 7.58232 21.0924 7.59946C21.9772 7.60763 22.7022 7.96137 23.226 8.67976C24.3636 10.2389 23.4517 12.449 21.5452 12.7627C21.3603 12.7931 21.172 12.8066 20.9848 12.8057C17.1799 12.7885 13.375 12.769 9.57005 12.7482C8.24456 12.7414 7.22253 11.9541 6.92707 10.7191C6.58789 9.30038 7.55275 7.83168 8.98808 7.59163C9.18624 7.55885 9.39036 7.54059 9.59075 7.54161C11.4956 7.54777 13.4005 7.55876 15.3054 7.56854L15.3054 7.56734Z" fill="white"/>
<path d="M13.8326 14.4187C15.0048 14.4247 16.177 14.4162 17.3478 14.4416C18.4426 14.4653 19.2597 14.974 19.7254 15.9697C20.4454 17.511 19.4739 19.3261 17.7994 19.5999C17.6193 19.6292 17.4358 19.6451 17.2535 19.6442C15.45 19.6386 13.6465 19.6293 11.843 19.6164C11.7211 19.6158 11.6498 19.6432 11.584 19.7587C11.3172 20.2257 11.2204 20.7357 11.2202 21.2583C11.2198 21.7918 11.2811 22.3255 11.3013 22.8591C11.3118 23.1561 11.3212 23.459 11.2774 23.7509C11.2261 24.0946 10.8947 24.2233 10.5926 24.0479C9.68028 23.5194 9.04929 22.7389 8.59176 21.806C8.17123 20.9469 7.93084 20.0332 7.79203 19.0911C7.6894 18.3942 7.64468 17.6927 7.6616 16.9879C7.69205 15.757 8.50363 14.7486 9.70258 14.4747C9.92133 14.4252 10.1508 14.407 10.3753 14.407C11.5282 14.4057 12.681 14.4152 13.8326 14.4211L13.8326 14.4187Z" fill="white"/>
<g clip-path="url(#clip0_2025_3326)">
<path d="M41.3588 17.3694V13.4774H49.0315V17.3694H41.3588ZM42.5542 24.5416H38.4955V5.61022H50.4214V9.52993H41.1364L42.5542 7.83417V24.5416Z" fill="white"/>
<path d="M55.7783 24.6806C55.0925 24.6806 54.4624 24.5416 53.8879 24.2636C53.3134 23.9856 52.85 23.5594 52.4979 22.9848C52.1458 22.3918 51.9697 21.6041 51.9697 20.6219V5.61022H56.0006V19.1763C56.0006 19.862 56.1211 20.3068 56.362 20.5107C56.6215 20.696 56.9458 20.7887 57.335 20.7887V24.5416C57.1497 24.5787 56.8995 24.6065 56.5844 24.625C56.2879 24.6621 56.0192 24.6806 55.7783 24.6806Z" fill="white"/>
<path d="M63.0209 24.5416H58.9622V10.9477H63.0209V24.5416ZM58.6008 6.6666C58.6008 5.94381 58.8139 5.36002 59.2401 4.91523C59.6849 4.47044 60.2687 4.24805 60.9915 4.24805C61.7143 4.24805 62.2888 4.47044 62.7151 4.91523C63.1599 5.36002 63.3823 5.94381 63.3823 6.6666C63.3823 7.37085 63.1599 7.94537 62.7151 8.39016C62.2888 8.81642 61.7143 9.02954 60.9915 9.02954C60.2687 9.02954 59.6849 8.81642 59.2401 8.39016C58.8139 7.94537 58.6008 7.37085 58.6008 6.6666Z" fill="white"/>
<path d="M68.4113 10.9477L69.4677 14.7006V24.5416H65.409V10.9477H68.4113ZM68.5781 16.9524L67.8832 16.6466V13.5052L68.1334 13.1717C68.3557 12.8566 68.6708 12.4952 69.0785 12.0875C69.5048 11.6798 69.9959 11.3369 70.5519 11.0589C71.1264 10.7624 71.7102 10.6141 72.3033 10.6141C72.5998 10.6141 72.8685 10.6326 73.1094 10.6697C73.3504 10.7068 73.545 10.7716 73.6932 10.8643V14.5616H72.7759C71.5897 14.5616 70.6538 14.7562 69.9681 15.1454C69.3009 15.5161 68.8376 16.1184 68.5781 16.9524Z" fill="white"/>
<path d="M81.2573 24.764C79.7561 24.764 78.57 24.3934 77.699 23.652C76.8464 22.9107 76.4202 21.6968 76.4202 20.0103V11.1145L76.3646 10.9477L77.1986 7.66737H80.4789V19.1207C80.4789 19.7509 80.6272 20.2049 80.9237 20.4829C81.2202 20.7424 81.6094 20.8721 82.0913 20.8721C82.3693 20.8721 82.6287 20.8536 82.8696 20.8165C83.1291 20.7609 83.3422 20.7053 83.509 20.6497V24.4582C83.194 24.5509 82.8511 24.625 82.4805 24.6806C82.1283 24.7362 81.7206 24.764 81.2573 24.764ZM74.3074 14.6728V10.9477H83.509V14.6728H74.3074Z" fill="white"/>
<path d="M90.2493 24.8752C89.2485 24.8752 88.4331 24.7269 87.803 24.4304C87.1914 24.1339 86.7095 23.7262 86.3574 23.2072C86.0238 22.6698 85.7921 22.0675 85.6624 21.4003C85.5512 20.7146 85.4956 19.9918 85.4956 19.2319V10.9477H89.5543V19.0095C89.5543 19.7694 89.7118 20.279 90.0269 20.5385C90.342 20.7794 90.7312 20.8999 91.1945 20.8999C91.6022 20.8999 92.0007 20.835 92.3899 20.7053C92.779 20.557 93.159 20.3532 93.5296 20.0937C93.9003 19.8157 94.2339 19.4821 94.5304 19.0929L95.2254 21.1501H94.0856V10.9477H98.1721V24.5416H95.142L94.308 21.8451L95.698 21.9563C95.2532 22.4752 94.7343 22.9663 94.1412 23.4296C93.5667 23.8744 92.9551 24.2266 92.3065 24.486C91.6578 24.7455 90.9721 24.8752 90.2493 24.8752Z" fill="white"/>
<path d="M107.387 24.5416V5.61022H114.003C115.968 5.61022 117.654 5.99014 119.063 6.74999C120.49 7.49131 121.583 8.57549 122.343 10.0025C123.121 11.411 123.511 13.1068 123.511 15.0898C123.511 17.0914 123.121 18.7964 122.343 20.2049C121.583 21.6134 120.49 22.6883 119.063 23.4296C117.636 24.171 115.94 24.5416 113.975 24.5416H107.387ZM111.446 22.1509L109.833 20.6219H113.697C114.828 20.6219 115.81 20.4366 116.644 20.0659C117.497 19.6767 118.155 19.0744 118.618 18.2589C119.1 17.4435 119.341 16.3871 119.341 15.0898C119.341 13.811 119.109 12.7639 118.646 11.9485C118.182 11.133 117.525 10.5307 116.672 10.1415C115.838 9.7338 114.856 9.52993 113.725 9.52993H109.639L111.446 8.33456V22.1509Z" fill="white"/>
<path d="M128.967 24.903C127.985 24.903 127.114 24.7177 126.354 24.347C125.612 23.9578 125.038 23.4204 124.63 22.7347C124.222 22.0489 124.019 21.252 124.019 20.3439C124.019 19.3802 124.241 18.5647 124.686 17.8976C125.131 17.2118 125.724 16.6836 126.465 16.313C127.225 15.9423 128.068 15.757 128.995 15.757C130.348 15.757 131.441 16.0628 132.275 16.6744C133.109 17.286 133.665 18.1663 133.943 19.3153L132.192 19.0095V15.8404C132.192 15.34 132.016 14.9045 131.663 14.5338C131.311 14.1632 130.746 13.9778 129.968 13.9778C129.467 13.9778 128.893 14.0427 128.244 14.1724C127.595 14.2836 126.928 14.506 126.243 14.8396L125.047 11.9485C125.863 11.5408 126.734 11.2164 127.66 10.9755C128.606 10.7346 129.569 10.6141 130.551 10.6141C131.812 10.6141 132.868 10.8365 133.721 11.2813C134.573 11.7261 135.203 12.3562 135.611 13.1717C136.037 13.9871 136.25 14.9323 136.25 16.0072V24.5416H132.942L132.136 21.9007L133.943 21.3447C133.646 22.4567 133.081 23.3277 132.247 23.9578C131.413 24.5879 130.32 24.903 128.967 24.903ZM130.218 22.0119C130.829 22.0119 131.311 21.8543 131.663 21.5393C132.034 21.2242 132.219 20.8258 132.219 20.3439C132.219 19.825 132.034 19.4173 131.663 19.1207C131.311 18.8242 130.829 18.6759 130.218 18.6759C129.606 18.6759 129.124 18.8242 128.772 19.1207C128.42 19.4173 128.244 19.825 128.244 20.3439C128.244 20.8258 128.42 21.2242 128.772 21.5393C129.124 21.8543 129.606 22.0119 130.218 22.0119Z" fill="white"/>
<path d="M144.311 24.764C142.81 24.764 141.624 24.3934 140.753 23.652C139.9 22.9107 139.474 21.6968 139.474 20.0103V11.1145L139.418 10.9477L140.252 7.66737H143.533V19.1207C143.533 19.7509 143.681 20.2049 143.977 20.4829C144.274 20.7424 144.663 20.8721 145.145 20.8721C145.423 20.8721 145.682 20.8536 145.923 20.8165C146.183 20.7609 146.396 20.7053 146.563 20.6497V24.4582C146.248 24.5509 145.905 24.625 145.534 24.6806C145.182 24.7362 144.774 24.764 144.311 24.764ZM137.361 14.6728V10.9477H146.563V14.6728H137.361Z" fill="white"/>
<path d="M152.83 24.5416H148.772V10.9477H152.83V24.5416ZM148.41 6.6666C148.41 5.94381 148.623 5.36002 149.05 4.91523C149.494 4.47044 150.078 4.24805 150.801 4.24805C151.524 4.24805 152.098 4.47044 152.525 4.91523C152.969 5.36002 153.192 5.94381 153.192 6.6666C153.192 7.37085 152.969 7.94537 152.525 8.39016C152.098 8.81642 151.524 9.02954 150.801 9.02954C150.078 9.02954 149.494 8.81642 149.05 8.39016C148.623 7.94537 148.41 7.37085 148.41 6.6666Z" fill="white"/>
<path d="M163.586 10.6141C164.494 10.6141 165.236 10.7716 165.81 11.0867C166.385 11.3832 166.82 11.8002 167.117 12.3377C167.432 12.8751 167.636 13.4867 167.728 14.1724C167.839 14.8396 167.895 15.5346 167.895 16.2574V24.5416H163.836V16.4798C163.836 15.7014 163.697 15.1917 163.419 14.9508C163.141 14.6914 162.771 14.5616 162.307 14.5616C161.918 14.5616 161.51 14.645 161.084 14.8118C160.676 14.9601 160.278 15.1732 159.889 15.4512C159.5 15.7292 159.157 16.0443 158.86 16.3964L158.137 14.3392H159.277V24.5416H155.218V10.9477H158.221L159.055 13.6442L157.665 13.533C158.147 12.9956 158.693 12.5045 159.305 12.0597C159.917 11.6149 160.584 11.2628 161.307 11.0033C162.029 10.7438 162.789 10.6141 163.586 10.6141Z" fill="white"/>
<path d="M175.953 30.1015C175.23 30.1015 174.489 29.9903 173.729 29.7679C172.987 29.564 172.302 29.2027 171.672 28.6837C171.041 28.1833 170.513 27.5162 170.087 26.6822L169.865 26.2096L172.784 24.7084C173.247 25.4312 173.71 25.9501 174.174 26.2652C174.655 26.5802 175.267 26.7378 176.008 26.7378C176.861 26.7378 177.556 26.4598 178.093 25.9038C178.631 25.3663 178.899 24.5509 178.899 23.4574V19.7879H179.177V14.367H178.899L179.928 10.9477H182.958V22.5957C182.958 24.1895 182.68 25.5517 182.124 26.6822C181.568 27.8127 180.762 28.6652 179.706 29.2397C178.668 29.8142 177.417 30.1015 175.953 30.1015ZM175.425 23.8188C174.201 23.8188 173.117 23.5408 172.172 22.9848C171.245 22.4289 170.504 21.6505 169.948 20.6497C169.411 19.6489 169.142 18.5091 169.142 17.2304C169.142 15.9331 169.401 14.7933 169.92 13.811C170.458 12.8103 171.199 12.0319 172.144 11.4759C173.089 10.9014 174.164 10.6141 175.369 10.6141C176.499 10.6141 177.491 10.8921 178.343 11.4481C179.196 12.0041 179.863 12.7732 180.345 13.7554C180.827 14.7377 181.068 15.896 181.068 17.2304C181.068 18.6018 180.836 19.7787 180.373 20.7609C179.909 21.7431 179.252 22.503 178.399 23.0404C177.565 23.5594 176.574 23.8188 175.425 23.8188ZM176.203 20.2605C177.055 20.2605 177.75 19.9732 178.288 19.3987C178.844 18.8242 179.122 18.1014 179.122 17.2304C179.122 16.3223 178.844 15.5809 178.288 15.0064C177.75 14.4319 177.055 14.1446 176.203 14.1446C175.35 14.1446 174.646 14.4319 174.09 15.0064C173.553 15.5809 173.284 16.3223 173.284 17.2304C173.284 18.1014 173.553 18.8242 174.09 19.3987C174.646 19.9732 175.35 20.2605 176.203 20.2605Z" fill="white"/>
</g>
<defs>
<clipPath id="clip0_2025_3326">
<rect width="60.2127" height="27.8596" fill="white" transform="translate(38.4955 1.45703)"/>
</clipPath>
</defs>
</svg>
