<svg width="63" height="63" viewBox="0 0 63 63" fill="none" xmlns="http://www.w3.org/2000/svg">
<rect x="0.228516" y="0.34668" width="62.2929" height="62.2929" rx="31.1464" fill="url(#paint0_linear_2025_3410)"/>
<path d="M31.2474 17.0856C34.9267 17.1045 38.6061 17.1142 42.2855 17.1469C43.9731 17.1624 45.3558 17.8372 46.355 19.2074C48.5248 22.1813 46.7855 26.3967 43.149 26.9951C42.7964 27.0532 42.4371 27.0789 42.0802 27.0771C34.8228 27.0444 27.5653 27.0072 20.3079 26.9676C17.7797 26.9546 15.8303 25.4528 15.2667 23.0972C14.6198 20.3912 16.4601 17.5898 19.1978 17.1319C19.5758 17.0694 19.9651 17.0346 20.3474 17.0365C23.9807 17.0483 27.614 17.0692 31.2474 17.0879L31.2474 17.0856Z" fill="white"/>
<path d="M28.4381 30.1547C30.6738 30.1662 32.9097 30.1501 35.1429 30.1984C37.2311 30.2437 38.7896 31.214 39.6778 33.1131C41.0511 36.0531 39.1982 39.5151 36.0042 40.0374C35.6608 40.0932 35.3107 40.1236 34.963 40.1218C31.5231 40.111 28.0832 40.0934 24.6432 40.0688C24.4107 40.0676 24.2746 40.1199 24.1491 40.3402C23.6403 41.2309 23.4557 42.2037 23.4552 43.2005C23.4546 44.2181 23.5713 45.2362 23.6099 46.2539C23.63 46.8203 23.6478 47.3982 23.5643 47.9549C23.4665 48.6105 22.8344 48.8559 22.2581 48.5214C20.518 47.5134 19.3145 46.0246 18.4418 44.2452C17.6397 42.6066 17.1812 40.8638 16.9164 39.0669C16.7207 37.7376 16.6354 36.3996 16.6676 35.0553C16.7257 32.7075 18.2737 30.784 20.5606 30.2617C20.9778 30.1671 21.4154 30.1325 21.8437 30.1325C24.0426 30.1299 26.2416 30.1481 28.4381 30.1594L28.4381 30.1547Z" fill="white"/>
<defs>
<linearGradient id="paint0_linear_2025_3410" x1="6.94815" y1="-28.0914" x2="63.6493" y2="-26.9979" gradientUnits="userSpaceOnUse">
<stop stop-color="#FF2067"/>
<stop offset="1" stop-color="#EB282B"/>
</linearGradient>
</defs>
</svg>
