<svg width="21" height="21" viewBox="0 0 21 21" fill="none" xmlns="http://www.w3.org/2000/svg">
<path d="M18.3125 10.5C18.3125 10.7486 18.2137 10.9871 18.0379 11.1629C17.8621 11.3387 17.6236 11.4375 17.375 11.4375L11.4375 11.4375L11.4375 17.375C11.4375 17.6236 11.3387 17.8621 11.1629 18.0379C10.9871 18.2137 10.7486 18.3125 10.5 18.3125C10.2514 18.3125 10.0129 18.2137 9.83709 18.0379C9.66127 17.8621 9.5625 17.6236 9.5625 17.375L9.5625 11.4375L3.625 11.4375C3.37636 11.4375 3.1379 11.3387 2.96209 11.1629C2.78627 10.9871 2.6875 10.7486 2.6875 10.5C2.6875 10.2514 2.78627 10.0129 2.96209 9.83709C3.1379 9.66127 3.37636 9.5625 3.625 9.5625L9.5625 9.5625L9.5625 3.625C9.5625 3.37636 9.66127 3.1379 9.83709 2.96209C10.0129 2.78627 10.2514 2.6875 10.5 2.6875C10.7486 2.6875 10.9871 2.78627 11.1629 2.96209C11.3387 3.1379 11.4375 3.37636 11.4375 3.625L11.4375 9.5625L17.375 9.5625C17.6236 9.5625 17.8621 9.66127 18.0379 9.83709C18.2137 10.0129 18.3125 10.2514 18.3125 10.5Z" fill="#F1253D"/>
</svg>
