<svg width="40" height="40" viewBox="0 0 40 40" fill="none" xmlns="http://www.w3.org/2000/svg">
<path d="M36.5625 12.5188C36.2105 12.1199 35.7777 11.8005 35.2928 11.5817C34.8079 11.363 34.282 11.2499 33.75 11.25H25V8.75C25 7.0924 24.3415 5.50269 23.1694 4.33058C21.9973 3.15848 20.4076 2.5 18.75 2.5C18.5178 2.49983 18.2901 2.56436 18.0925 2.68635C17.8949 2.80833 17.7352 2.98295 17.6313 3.19063L11.7281 15H5C4.33696 15 3.70107 15.2634 3.23223 15.7322C2.76339 16.2011 2.5 16.837 2.5 17.5V31.25C2.5 31.913 2.76339 32.5489 3.23223 33.0178C3.70107 33.4866 4.33696 33.75 5 33.75H31.875C32.7886 33.7503 33.6709 33.4171 34.3562 32.8129C35.0415 32.2088 35.4827 31.3752 35.5969 30.4688L37.4719 15.4688C37.5383 14.9407 37.4916 14.4045 37.3348 13.8958C37.178 13.3872 36.9148 12.9178 36.5625 12.5188ZM5 17.5H11.25V31.25H5V17.5ZM34.9906 15.1562L33.1156 30.1562C33.0776 30.4584 32.9305 30.7363 32.7021 30.9376C32.4736 31.139 32.1795 31.2501 31.875 31.25H13.75V16.5453L19.4859 5.07188C20.3361 5.24202 21.101 5.70149 21.6505 6.3721C22.2001 7.0427 22.5002 7.883 22.5 8.75V12.5C22.5 12.8315 22.6317 13.1495 22.8661 13.3839C23.1005 13.6183 23.4185 13.75 23.75 13.75H33.75C33.9274 13.7499 34.1027 13.7876 34.2644 13.8606C34.4261 13.9335 34.5704 14.04 34.6878 14.173C34.8051 14.3061 34.8928 14.4625 34.945 14.632C34.9973 14.8016 35.0128 14.9803 34.9906 15.1562Z" fill="white"/>
</svg>
