<svg width="16" height="17" viewBox="0 0 16 17" fill="none" xmlns="http://www.w3.org/2000/svg">
<path d="M8.00311 4.90635C6.01561 4.90635 4.41249 6.50947 4.41249 8.49697C4.41249 10.4845 6.01561 12.0876 8.00311 12.0876C9.99061 12.0876 11.5937 10.4845 11.5937 8.49697C11.5937 6.50947 9.99061 4.90635 8.00311 4.90635ZM8.00311 10.8313C6.71874 10.8313 5.66874 9.78447 5.66874 8.49697C5.66874 7.20947 6.71561 6.1626 8.00311 6.1626C9.29061 6.1626 10.3375 7.20947 10.3375 8.49697C10.3375 9.78447 9.28749 10.8313 8.00311 10.8313ZM12.5781 4.75947C12.5781 5.2251 12.2031 5.59697 11.7406 5.59697C11.275 5.59697 10.9031 5.22197 10.9031 4.75947C10.9031 4.29697 11.2781 3.92197 11.7406 3.92197C12.2031 3.92197 12.5781 4.29697 12.5781 4.75947ZM14.9562 5.60947C14.9031 4.4876 14.6469 3.49385 13.825 2.6751C13.0062 1.85635 12.0125 1.6001 10.8906 1.54385C9.73436 1.47822 6.26874 1.47822 5.11249 1.54385C3.99374 1.59697 2.99999 1.85322 2.17811 2.67197C1.35624 3.49072 1.10311 4.48447 1.04686 5.60635C0.981236 6.7626 0.981236 10.2282 1.04686 11.3845C1.09999 12.5063 1.35624 13.5001 2.17811 14.3188C2.99999 15.1376 3.99061 15.3938 5.11249 15.4501C6.26874 15.5157 9.73436 15.5157 10.8906 15.4501C12.0125 15.397 13.0062 15.1407 13.825 14.3188C14.6437 13.5001 14.9 12.5063 14.9562 11.3845C15.0219 10.2282 15.0219 6.76572 14.9562 5.60947ZM13.4625 12.6251C13.2187 13.2376 12.7469 13.7095 12.1312 13.9563C11.2094 14.322 9.02186 14.2376 8.00311 14.2376C6.98436 14.2376 4.79374 14.3188 3.87499 13.9563C3.26249 13.7126 2.79061 13.2407 2.54374 12.6251C2.17811 11.7032 2.26249 9.51572 2.26249 8.49697C2.26249 7.47822 2.18124 5.2876 2.54374 4.36885C2.78749 3.75635 3.25936 3.28447 3.87499 3.0376C4.79686 2.67197 6.98436 2.75635 8.00311 2.75635C9.02186 2.75635 11.2125 2.6751 12.1312 3.0376C12.7437 3.28135 13.2156 3.75322 13.4625 4.36885C13.8281 5.29072 13.7437 7.47822 13.7437 8.49697C13.7437 9.51572 13.8281 11.7063 13.4625 12.6251Z" fill="white"/>
</svg>
