<svg width="23" height="23" viewBox="0 0 23 23" fill="none" xmlns="http://www.w3.org/2000/svg">
<rect x="0.779358" width="22.1549" height="22.1549" rx="11.0775" fill="#29A0DC"/>
<path d="M8.17056 12.0657L5.36716 11.1523C5.36716 11.1523 5.03212 11.0164 5.14 10.7081C5.16221 10.6446 5.20701 10.5905 5.34102 10.4975C5.96218 10.0646 16.8382 6.15544 16.8382 6.15544C16.8382 6.15544 17.1453 6.05196 17.3264 6.12079C17.3712 6.13466 17.4115 6.16018 17.4432 6.19474C17.4749 6.22931 17.4969 6.27167 17.5068 6.3175C17.5264 6.39846 17.5346 6.48174 17.5311 6.56495C17.5303 6.63694 17.5216 6.70366 17.515 6.80829C17.4487 7.87706 15.4664 15.8536 15.4664 15.8536C15.4664 15.8536 15.3478 16.3204 14.9229 16.3364C14.8185 16.3398 14.7145 16.3221 14.617 16.2844C14.5196 16.2467 14.4307 16.1898 14.3557 16.117C13.5219 15.3997 10.6398 13.4628 10.0029 13.0368C9.98857 13.027 9.97647 13.0143 9.96745 12.9994C9.95844 12.9846 9.95271 12.9679 9.95067 12.9507C9.94176 12.9058 9.99058 12.8502 9.99058 12.8502C9.99058 12.8502 15.0091 8.38938 15.1426 7.92109C15.1529 7.88481 15.1139 7.86691 15.0614 7.8828C14.7281 8.00543 8.94996 11.6544 8.31224 12.0571C8.26633 12.071 8.21781 12.0739 8.17056 12.0657Z" fill="white"/>
</svg>
