<svg width="31" height="31" viewBox="0 0 31 31" fill="none" xmlns="http://www.w3.org/2000/svg">
<rect y="0.371094" width="30.5792" height="30.5792" rx="15.2896" fill="url(#paint0_linear_2025_3420)"/>
<path d="M9.84586 16.892L11.8758 22.5107C11.8758 22.5107 12.1296 23.0364 12.4014 23.0364C12.6731 23.0364 16.7153 18.8313 16.7153 18.8313L21.2102 10.1494L9.91829 15.4417L9.84586 16.892Z" fill="#C8DAEA"/>
<path d="M12.5369 18.333L12.1472 22.4745C12.1472 22.4745 11.9841 23.7435 13.2528 22.4745C14.5215 21.2055 15.7359 20.2269 15.7359 20.2269" fill="#A9C6D8"/>
<path d="M9.88187 17.0923L5.70617 15.7318C5.70617 15.7318 5.20713 15.5293 5.36782 15.0702C5.4009 14.9755 5.46763 14.895 5.66724 14.7565C6.59247 14.1116 22.7924 8.28895 22.7924 8.28895C22.7924 8.28895 23.2498 8.13482 23.5196 8.23733C23.5863 8.25799 23.6463 8.29601 23.6936 8.34749C23.7408 8.39897 23.7735 8.46207 23.7883 8.53034C23.8175 8.65092 23.8297 8.77498 23.8245 8.89892C23.8233 9.00614 23.8103 9.10552 23.8004 9.26137C23.7018 10.8533 20.7492 22.7345 20.7492 22.7345C20.7492 22.7345 20.5725 23.4298 19.9396 23.4536C19.784 23.4586 19.6291 23.4322 19.4839 23.3761C19.3388 23.32 19.2064 23.2352 19.0948 23.1268C17.8527 22.0584 13.5598 19.1734 12.6112 18.5389C12.5898 18.5243 12.5718 18.5053 12.5584 18.4831C12.5449 18.461 12.5364 18.4362 12.5334 18.4105C12.5201 18.3437 12.5928 18.2608 12.5928 18.2608C12.5928 18.2608 20.0679 11.6164 20.2668 10.9189C20.2822 10.8649 20.224 10.8382 20.1459 10.8619C19.6494 11.0445 11.0428 16.4797 10.0929 17.0795C10.0245 17.1002 9.95225 17.1046 9.88187 17.0923Z" fill="white"/>
<defs>
<linearGradient id="paint0_linear_2025_3420" x1="15.2896" y1="30.9502" x2="15.2896" y2="0.371094" gradientUnits="userSpaceOnUse">
<stop stop-color="#1D93D2"/>
<stop offset="1" stop-color="#38B0E3"/>
</linearGradient>
</defs>
</svg>
